{"asset":{"version":"2.0","generator":"babylon.js glTF exporter for Autodesk MAYA 2022 v20240312.5"},"scene":0,"scenes":[{"nodes":[0,1]}],"nodes":[{"mesh":0,"translation":[-0.013316121,-0.013302194,-0.0110414969],"rotation":[0.0,0.109900169,0.0,0.9939426],"name":"FMARTVTEST"},{"mesh":1,"name":"Base"}],"meshes":[{"primitives":[{"attributes":{"POSITION":1,"TANGENT":2,"NORMAL":3,"TEXCOORD_0":4},"indices":0,"material":0}],"name":"FMARTVTEST"},{"primitives":[{"attributes":{"POSITION":6,"TANGENT":7,"NORMAL":8,"TEXCOORD_0":9},"indices":5,"material":1}],"name":"Base"}],"accessors":[{"bufferView":0,"componentType":5123,"count":19656,"type":"SCALAR","name":"accessorIndices"},{"bufferView":1,"componentType":5126,"count":5032,"max":[0.026166413,0.0154048717,0.0163394418],"min":[-0.0261790715,-0.0447081178,-0.0265991874],"type":"VEC3","name":"accessorPositions"},{"bufferView":2,"componentType":5126,"count":5032,"type":"VEC4","name":"accessorTangents"},{"bufferView":1,"byteOffset":60384,"componentType":5126,"count":5032,"type":"VEC3","name":"accessorNormals"},{"bufferView":3,"componentType":5126,"count":5032,"type":"VEC2","name":"accessorUVs"},{"bufferView":0,"byteOffset":39312,"componentType":5123,"count":4212,"type":"SCALAR","name":"accessorIndices"},{"bufferView":1,"byteOffset":120768,"componentType":5126,"count":906,"max":[0.06033971,0.0879842862,0.07493733],"min":[-0.08974972,-0.06190171,-0.0749999955],"type":"VEC3","name":"accessorPositions"},{"bufferView":2,"byteOffset":80512,"componentType":5126,"count":906,"type":"VEC4","name":"accessorTangents"},{"bufferView":1,"byteOffset":131640,"componentType":5126,"count":906,"type":"VEC3","name":"accessorNormals"},{"bufferView":3,"byteOffset":40256,"componentType":5126,"count":906,"type":"VEC2","name":"accessorUVs"}],"bufferViews":[{"buffer":0,"byteLength":47736,"name":"bufferViewScalar"},{"buffer":0,"byteOffset":47736,"byteLength":142512,"byteStride":12,"name":"bufferViewFloatVec3"},{"buffer":0,"byteOffset":190248,"byteLength":95008,"byteStride":16,"name":"bufferViewFloatVec4"},{"buffer":0,"byteOffset":285256,"byteLength":47504,"byteStride":8,"name":"bufferViewFloatVec2"}],"buffers":[{"uri":"FMAR_TV_TEST_10.bin","byteLength":332760}],"materials":[{"pbrMetallicRoughness":{"baseColorTexture":{"index":1},"metallicFactor":0.0,"roughnessFactor":0.201679826},"normalTexture":{"index":0},"name":"TVBlinn"},{"pbrMetallicRoughness":{"baseColorTexture":{"index":3},"metallicRoughnessTexture":{"index":4}},"normalTexture":{"index":2},"name":"Walls"}],"textures":[{"sampler":0,"source":0,"name":"TV_Normal.png"},{"sampler":0,"source":1,"name":"TV_Basecolour.png"},{"sampler":0,"source":2,"name":"TVTest3WallsUvs1 Normals.jpg"},{"sampler":0,"source":3,"name":"TVTest3WallsUvs2.jpg"},{"sampler":0,"source":4,"name":"file80.jpg"}],"images":[{"uri":"TV_Normal.png"},{"uri":"TV_Basecolour.png"},{"uri":"TVTest3WallsUvs1 Normals.jpg"},{"uri":"TVTest3WallsUvs2.jpg"},{"uri":"file80.jpg"}],"samplers":[{"magFilter":9729,"minFilter":9987}]}