{"asset":{"version":"2.0","generator":"babylon.js glTF exporter for Autodesk MAYA 2022 v20240312.5"},"scene":0,"scenes":[{"nodes":[0,1]}],"nodes":[{"mesh":0,"translation":[0.0,-2.38418574E-09,-2.38418574E-09],"rotation":[0.707106769,0.0,0.0,0.707106769],"name":"pCylinder4"},{"mesh":1,"translation":[7.98572541E-10,-7.87040544E-10,-2.38418574E-09],"rotation":[0.707106769,0.0,0.0,0.707106769],"scale":[0.330108732,0.330108732,0.330108732],"name":"pCylinder5"}],"meshes":[{"primitives":[{"attributes":{"POSITION":1,"TANGENT":2,"NORMAL":3,"TEXCOORD_0":4},"indices":0,"material":0}],"name":"pCylinder4"},{"primitives":[{"attributes":{"POSITION":6,"TANGENT":7,"NORMAL":8,"TEXCOORD_0":9},"indices":5,"material":1}],"name":"pCylinder5"}],"accessors":[{"bufferView":0,"componentType":5123,"count":972,"type":"SCALAR","name":"accessorIndices"},{"bufferView":1,"componentType":5126,"count":526,"max":[0.0216834452,0.00145563832,0.0216834452],"min":[-0.0216834415,-0.00145563832,-0.0216834489],"type":"VEC3","name":"accessorPositions"},{"bufferView":2,"componentType":5126,"count":526,"type":"VEC4","name":"accessorTangents"},{"bufferView":1,"byteOffset":6312,"componentType":5126,"count":526,"type":"VEC3","name":"accessorNormals"},{"bufferView":3,"componentType":5126,"count":526,"type":"VEC2","name":"accessorUVs"},{"bufferView":0,"byteOffset":1944,"componentType":5123,"count":960,"type":"SCALAR","name":"accessorIndices"},{"bufferView":1,"byteOffset":12624,"componentType":5126,"count":482,"max":[0.0216834452,0.00145563832,0.0216834452],"min":[-0.0216834415,-0.00145563832,-0.0216834489],"type":"VEC3","name":"accessorPositions"},{"bufferView":2,"byteOffset":8416,"componentType":5126,"count":482,"type":"VEC4","name":"accessorTangents"},{"bufferView":1,"byteOffset":18408,"componentType":5126,"count":482,"type":"VEC3","name":"accessorNormals"},{"bufferView":3,"byteOffset":4208,"componentType":5126,"count":482,"type":"VEC2","name":"accessorUVs"},{"bufferView":4,"componentType":5126,"count":120,"max":[4.95833349],"min":[0.0],"type":"SCALAR","name":"accessorAnimationInput"},{"bufferView":5,"componentType":5126,"count":120,"type":"VEC4","name":"accessorAnimationRotations"},{"bufferView":4,"byteOffset":480,"componentType":5126,"count":2,"max":[4.95833349],"min":[0.0],"type":"SCALAR","name":"accessorAnimationInput"},{"bufferView":6,"componentType":5126,"count":2,"type":"VEC3","name":"accessorAnimationScales"},{"bufferView":4,"byteOffset":488,"componentType":5126,"count":120,"max":[4.95833349],"min":[0.0],"type":"SCALAR","name":"accessorAnimationInput"},{"bufferView":5,"byteOffset":1920,"componentType":5126,"count":120,"type":"VEC4","name":"accessorAnimationRotations"}],"bufferViews":[{"buffer":0,"byteLength":3864,"name":"bufferViewScalar"},{"buffer":0,"byteOffset":3864,"byteLength":24192,"byteStride":12,"name":"bufferViewFloatVec3"},{"buffer":0,"byteOffset":28056,"byteLength":16128,"byteStride":16,"name":"bufferViewFloatVec4"},{"buffer":0,"byteOffset":44184,"byteLength":8064,"byteStride":8,"name":"bufferViewFloatVec2"},{"buffer":0,"byteOffset":52248,"byteLength":968,"name":"bufferViewAnimationFloatScalar"},{"buffer":0,"byteOffset":53216,"byteLength":3840,"name":"bufferViewAnimationFloatVec4"},{"buffer":0,"byteOffset":57056,"byteLength":24,"name":"bufferViewAnimationFloatVec3"}],"buffers":[{"uri":"SunSpin.bin","byteLength":57080}],"materials":[{"pbrMetallicRoughness":{"baseColorFactor":[1.0,0.653849959,0.0,1.0],"roughnessFactor":0.4025974},"name":"standardSurface3"},{"pbrMetallicRoughness":{"baseColorFactor":[0.980900049,1.0,0.0,1.0],"metallicFactor":0.2,"roughnessFactor":0.4},"emissiveFactor":[0.980900049,1.0,0.0],"name":"standardSurface2"}],"animations":[{"channels":[{"sampler":0,"target":{"node":0,"path":"rotation"}},{"sampler":1,"target":{"node":1,"path":"scale"}},{"sampler":2,"target":{"node":1,"path":"rotation"}}],"samplers":[{"input":10,"output":11},{"input":12,"output":13},{"input":14,"output":15}],"name":"SunSpin"}]}