{"asset":{"version":"2.0","generator":"babylon.js glTF exporter for Autodesk MAYA 2022 v20240312.5"},"scene":0,"scenes":[{"nodes":[0,1]}],"nodes":[{"mesh":0,"translation":[3.0169478E-09,1.9430213E-09,-2.38418574E-09],"rotation":[0.102311276,0.6996659,0.6996659,0.102311276],"name":"pCylinder4"},{"mesh":1,"rotation":[-0.707106769,0.0,0.0,0.707106769],"scale":[1.52946377,1.52946377,1.52946377],"name":"pPlane1"}],"meshes":[{"primitives":[{"attributes":{"POSITION":1,"TANGENT":2,"NORMAL":3,"TEXCOORD_0":4},"indices":0,"material":0}],"name":"pCylinder4"},{"primitives":[{"attributes":{"POSITION":6,"TANGENT":7,"NORMAL":8,"TEXCOORD_0":9},"indices":5,"material":1}],"name":"pPlane1"}],"accessors":[{"bufferView":0,"componentType":5123,"count":255,"type":"SCALAR","name":"accessorIndices"},{"bufferView":1,"componentType":5126,"count":89,"max":[0.0216834452,-0.0006843622,0.0216834452],"min":[-0.0216834415,-0.0006843777,-0.0216834489],"type":"VEC3","name":"accessorPositions"},{"bufferView":2,"componentType":5126,"count":89,"type":"VEC4","name":"accessorTangents"},{"bufferView":1,"byteOffset":1068,"componentType":5126,"count":89,"type":"VEC3","name":"accessorNormals"},{"bufferView":3,"componentType":5126,"count":89,"type":"VEC2","name":"accessorUVs"},{"bufferView":0,"byteOffset":512,"componentType":5123,"count":600,"type":"SCALAR","name":"accessorIndices"},{"bufferView":1,"byteOffset":2136,"componentType":5126,"count":121,"max":[0.00535103539,0.0,0.00535103539],"min":[-0.00535103539,0.0,-0.00535103539],"type":"VEC3","name":"accessorPositions"},{"bufferView":2,"byteOffset":1424,"componentType":5126,"count":121,"type":"VEC4","name":"accessorTangents"},{"bufferView":1,"byteOffset":3588,"componentType":5126,"count":121,"type":"VEC3","name":"accessorNormals"},{"bufferView":3,"byteOffset":712,"componentType":5126,"count":121,"type":"VEC2","name":"accessorUVs"},{"bufferView":4,"componentType":5126,"count":120,"max":[4.95833349],"min":[0.0],"type":"SCALAR","name":"accessorAnimationInput"},{"bufferView":5,"componentType":5126,"count":120,"type":"VEC4","name":"accessorAnimationRotations"}],"bufferViews":[{"buffer":0,"byteLength":1712,"name":"bufferViewScalar"},{"buffer":0,"byteOffset":1712,"byteLength":5040,"byteStride":12,"name":"bufferViewFloatVec3"},{"buffer":0,"byteOffset":6752,"byteLength":3360,"byteStride":16,"name":"bufferViewFloatVec4"},{"buffer":0,"byteOffset":10112,"byteLength":1680,"byteStride":8,"name":"bufferViewFloatVec2"},{"buffer":0,"byteOffset":11792,"byteLength":480,"name":"bufferViewAnimationFloatScalar"},{"buffer":0,"byteOffset":12272,"byteLength":1920,"name":"bufferViewAnimationFloatVec4"}],"buffers":[{"uri":"SunSpin.bin","byteLength":14192}],"materials":[{"pbrMetallicRoughness":{"baseColorTexture":{"index":0},"metallicFactor":0.0,"roughnessFactor":0.5},"name":"standardSurface3"},{"pbrMetallicRoughness":{"baseColorTexture":{"index":1},"metallicFactor":0.0},"name":"standardSurface4"}],"textures":[{"sampler":0,"source":0,"name":"yellow paper.jpg"},{"sampler":0,"source":1,"name":"Postcards 5.jpg"}],"images":[{"uri":"yellow paper.jpg"},{"uri":"Postcards 5.jpg"}],"samplers":[{"magFilter":9729,"minFilter":9987}],"animations":[{"channels":[{"sampler":0,"target":{"node":0,"path":"rotation"}}],"samplers":[{"input":10,"output":11}],"name":"SunSpin"}]}