{"asset":{"version":"2.0","generator":"babylon.js glTF exporter for Autodesk MAYA 2022 v20240312.5"},"scene":0,"scenes":[{"nodes":[0]}],"nodes":[{"children":[1],"mesh":0,"scale":[5.0,5.0,5.0],"name":"pCube1"},{"mesh":1,"translation":[0.000215373235,-0.00012598683,2.78386142E-05],"rotation":[-0.0468393452,-0.9311119,0.028011078,0.3606275],"scale":[0.190203369,0.497369,-0.190203369],"name":"pCylinder1"}],"meshes":[{"primitives":[{"attributes":{"POSITION":1,"TANGENT":2,"NORMAL":3,"TEXCOORD_0":4},"indices":0,"material":0}],"name":"pCube1"},{"primitives":[{"attributes":{"POSITION":6,"TANGENT":7,"NORMAL":8,"TEXCOORD_0":9},"indices":5,"material":1}],"name":"pCylinder1"}],"accessors":[{"bufferView":0,"componentType":5123,"count":432,"type":"SCALAR","name":"accessorIndices"},{"bufferView":1,"componentType":5126,"count":172,"max":[0.005,0.005,0.005],"min":[-0.005,-0.005,-0.005],"type":"VEC3","name":"accessorPositions"},{"bufferView":2,"componentType":5126,"count":172,"type":"VEC4","name":"accessorTangents"},{"bufferView":1,"byteOffset":2064,"componentType":5126,"count":172,"type":"VEC3","name":"accessorNormals"},{"bufferView":3,"componentType":5126,"count":172,"type":"VEC2","name":"accessorUVs"},{"bufferView":0,"byteOffset":864,"componentType":5123,"count":5628,"type":"SCALAR","name":"accessorIndices"},{"bufferView":1,"byteOffset":4128,"componentType":5126,"count":1375,"max":[0.0118802534,0.0100000026,0.0118802553],"min":[-0.0118802553,-0.009966586,-0.0118802581],"type":"VEC3","name":"accessorPositions"},{"bufferView":2,"byteOffset":2752,"componentType":5126,"count":1375,"type":"VEC4","name":"accessorTangents"},{"bufferView":1,"byteOffset":20628,"componentType":5126,"count":1375,"type":"VEC3","name":"accessorNormals"},{"bufferView":3,"byteOffset":1376,"componentType":5126,"count":1375,"type":"VEC2","name":"accessorUVs"},{"bufferView":4,"componentType":5126,"count":24,"max":[4.95833349],"min":[0.0],"type":"SCALAR","name":"accessorAnimationInput"},{"bufferView":5,"componentType":5126,"count":24,"type":"VEC3","name":"accessorAnimationScales"},{"bufferView":4,"byteOffset":96,"componentType":5126,"count":26,"max":[4.95833349],"min":[0.0],"type":"SCALAR","name":"accessorAnimationInput"},{"bufferView":6,"componentType":5126,"count":26,"type":"VEC4","name":"accessorAnimationRotations"},{"bufferView":4,"byteOffset":200,"componentType":5126,"count":16,"max":[4.95833349],"min":[0.0],"type":"SCALAR","name":"accessorAnimationInput"},{"bufferView":5,"byteOffset":288,"componentType":5126,"count":16,"type":"VEC3","name":"accessorAnimationPositions"}],"bufferViews":[{"buffer":0,"byteLength":12120,"name":"bufferViewScalar"},{"buffer":0,"byteOffset":12120,"byteLength":37128,"byteStride":12,"name":"bufferViewFloatVec3"},{"buffer":0,"byteOffset":49248,"byteLength":24752,"byteStride":16,"name":"bufferViewFloatVec4"},{"buffer":0,"byteOffset":74000,"byteLength":12376,"byteStride":8,"name":"bufferViewFloatVec2"},{"buffer":0,"byteOffset":86376,"byteLength":264,"name":"bufferViewAnimationFloatScalar"},{"buffer":0,"byteOffset":86640,"byteLength":480,"name":"bufferViewAnimationFloatVec3"},{"buffer":0,"byteOffset":87120,"byteLength":416,"name":"bufferViewAnimationFloatVec4"}],"buffers":[{"uri":"Vase.bin","byteLength":87536}],"materials":[{"pbrMetallicRoughness":{"baseColorFactor":[0.8,0.8,0.8,1.0],"metallicFactor":0.0,"roughnessFactor":0.4},"emissiveFactor":[1.0,1.0,1.0],"name":"standardSurface2"},{"pbrMetallicRoughness":{"baseColorTexture":{"index":0},"metallicFactor":0.0,"roughnessFactor":0.4},"name":"standardSurface3"}],"textures":[{"sampler":0,"source":0,"name":"Vase1.jpg"}],"images":[{"uri":"Vase1.jpg"}],"samplers":[{"magFilter":9729,"minFilter":9987}],"animations":[{"channels":[{"sampler":0,"target":{"node":0,"path":"scale"}},{"sampler":1,"target":{"node":0,"path":"rotation"}},{"sampler":2,"target":{"node":0,"path":"translation"}}],"samplers":[{"input":10,"output":11},{"input":12,"output":13},{"input":14,"output":15}],"name":"Animation"}]}