{"asset":{"version":"2.0","generator":"babylon.js glTF exporter for Autodesk MAYA 2022 v20240312.5"},"scene":0,"scenes":[{"nodes":[0]}],"nodes":[{"mesh":0,"name":"VHS"}],"meshes":[{"primitives":[{"attributes":{"POSITION":1,"TANGENT":2,"NORMAL":3,"TEXCOORD_0":4},"indices":0,"material":0}],"name":"VHS"}],"accessors":[{"bufferView":0,"componentType":5123,"count":648,"type":"SCALAR","name":"accessorIndices"},{"bufferView":1,"componentType":5126,"count":260,"max":[0.0622161031,0.006959548,0.0325227864],"min":[-0.0584008172,-0.006959548,-0.0324672],"type":"VEC3","name":"accessorPositions"},{"bufferView":2,"componentType":5126,"count":260,"type":"VEC4","name":"accessorTangents"},{"bufferView":1,"byteOffset":3120,"componentType":5126,"count":260,"type":"VEC3","name":"accessorNormals"},{"bufferView":3,"componentType":5126,"count":260,"type":"VEC2","name":"accessorUVs"}],"bufferViews":[{"buffer":0,"byteLength":1296,"name":"bufferViewScalar"},{"buffer":0,"byteOffset":1296,"byteLength":6240,"byteStride":12,"name":"bufferViewFloatVec3"},{"buffer":0,"byteOffset":7536,"byteLength":4160,"byteStride":16,"name":"bufferViewFloatVec4"},{"buffer":0,"byteOffset":11696,"byteLength":2080,"byteStride":8,"name":"bufferViewFloatVec2"}],"buffers":[{"uri":"VHS.bin","byteLength":13776}],"materials":[{"pbrMetallicRoughness":{"baseColorTexture":{"index":0},"metallicFactor":0.0},"name":"standardSurface2"}],"textures":[{"sampler":0,"source":0,"name":"VHS-to-digital-VHS-to-DVD-VCR-to-MP4-Convert-VHS-tape-to-USB-Transfer-Service.jpg"}],"images":[{"uri":"VHS-to-digital-VHS-to-DVD-VCR-to-MP4-Convert-VHS-tape-to-USB-Transfer-Service.jpg"}],"samplers":[{"magFilter":9729,"minFilter":9987}]}