{"asset":{"version":"2.0","generator":"babylon.js glTF exporter for Autodesk MAYA 2022 v20240312.5"},"scene":0,"scenes":[{"nodes":[0,1,2]}],"nodes":[{"mesh":0,"name":"pCylinder1"},{"mesh":1,"translation":[0.0,0.270463973,0.0],"scale":[1.56888437,1.35177231,4.83542633],"name":"pCube1"},{"children":[3,4,5],"mesh":2,"translation":[0.0,0.270269871,0.0239432324],"rotation":[0.631106138,-0.318912327,-0.318912327,0.631106138],"name":"pCone1"},{"mesh":3,"translation":[0.0,-0.004551685,0.09499122],"rotation":[-0.707106769,0.0,0.0,0.707106769],"scale":[0.794259131,19.4104786,0.24529475],"name":"Blade"},{"mesh":4,"translation":[-0.0919160545,-0.004551685,-0.023974387],"rotation":[-0.432323575,-0.5595501,-0.5595501,0.432323575],"scale":[0.794259131,19.4104786,0.24529475],"name":"Blade1"},{"mesh":5,"translation":[0.0810399354,-0.004551685,-0.04955665],"rotation":[-0.3457972,0.616785467,0.616785467,0.3457972],"scale":[0.794259131,19.4104786,0.24529475],"name":"Blade2"}],"meshes":[{"primitives":[{"attributes":{"POSITION":1,"TANGENT":2,"NORMAL":3,"TEXCOORD_0":4},"indices":0,"material":0}],"name":"pCylinder1"},{"primitives":[{"attributes":{"POSITION":6,"TANGENT":7,"NORMAL":8,"TEXCOORD_0":9},"indices":5,"material":0}],"name":"pCube1"},{"primitives":[{"attributes":{"POSITION":11,"TANGENT":12,"NORMAL":13,"TEXCOORD_0":14},"indices":10,"material":0}],"name":"pCone1"},{"primitives":[{"attributes":{"POSITION":16,"TANGENT":17,"NORMAL":18,"TEXCOORD_0":19},"indices":15,"material":0}],"name":"Blade"},{"primitives":[{"attributes":{"POSITION":21,"TANGENT":22,"NORMAL":23,"TEXCOORD_0":24},"indices":20,"material":0}],"name":"Blade1"},{"primitives":[{"attributes":{"POSITION":26,"TANGENT":27,"NORMAL":28,"TEXCOORD_0":29},"indices":25,"material":0}],"name":"Blade2"}],"accessors":[{"bufferView":0,"componentType":5123,"count":174,"type":"SCALAR","name":"accessorIndices"},{"bufferView":1,"componentType":5126,"count":62,"max":[0.01,0.266706258,0.0100000007],"min":[-0.0100000026,-0.01,-0.0100000044],"type":"VEC3","name":"accessorPositions"},{"bufferView":2,"componentType":5126,"count":62,"type":"VEC4","name":"accessorTangents"},{"bufferView":1,"byteOffset":744,"componentType":5126,"count":62,"type":"VEC3","name":"accessorNormals"},{"bufferView":3,"componentType":5126,"count":62,"type":"VEC2","name":"accessorUVs"},{"bufferView":0,"byteOffset":348,"componentType":5123,"count":324,"type":"SCALAR","name":"accessorIndices"},{"bufferView":1,"byteOffset":1488,"componentType":5126,"count":96,"max":[0.005551966,0.005555451,0.00196307246],"min":[-0.005551971,-0.00522499066,-0.00569753768],"type":"VEC3","name":"accessorPositions"},{"bufferView":2,"byteOffset":992,"componentType":5126,"count":96,"type":"VEC4","name":"accessorTangents"},{"bufferView":1,"byteOffset":2640,"componentType":5126,"count":96,"type":"VEC3","name":"accessorNormals"},{"bufferView":3,"byteOffset":496,"componentType":5126,"count":96,"type":"VEC2","name":"accessorUVs"},{"bufferView":0,"byteOffset":996,"componentType":5123,"count":2634,"type":"SCALAR","name":"accessorIndices"},{"bufferView":1,"byteOffset":3792,"componentType":5126,"count":862,"max":[0.009999962,0.0152618214,0.01],"min":[-0.009999962,-0.0159163643,-0.009999999],"type":"VEC3","name":"accessorPositions"},{"bufferView":2,"byteOffset":2528,"componentType":5126,"count":862,"type":"VEC4","name":"accessorTangents"},{"bufferView":1,"byteOffset":14136,"componentType":5126,"count":862,"type":"VEC3","name":"accessorNormals"},{"bufferView":3,"byteOffset":1264,"componentType":5126,"count":862,"type":"VEC2","name":"accessorUVs"},{"bufferView":0,"byteOffset":6264,"componentType":5123,"count":630,"type":"SCALAR","name":"accessorIndices"},{"bufferView":1,"byteOffset":24480,"componentType":5126,"count":215,"max":[0.0149172777,0.00499999849,0.00500000454],"min":[-0.0151287271,-0.00500000129,-0.008357939],"type":"VEC3","name":"accessorPositions"},{"bufferView":2,"byteOffset":16320,"componentType":5126,"count":215,"type":"VEC4","name":"accessorTangents"},{"bufferView":1,"byteOffset":27060,"componentType":5126,"count":215,"type":"VEC3","name":"accessorNormals"},{"bufferView":3,"byteOffset":8160,"componentType":5126,"count":215,"type":"VEC2","name":"accessorUVs"},{"bufferView":0,"byteOffset":7524,"componentType":5123,"count":630,"type":"SCALAR","name":"accessorIndices"},{"bufferView":1,"byteOffset":29640,"componentType":5126,"count":215,"max":[0.0149172777,0.00499999849,0.00500000454],"min":[-0.0151287271,-0.00500000129,-0.008357939],"type":"VEC3","name":"accessorPositions"},{"bufferView":2,"byteOffset":19760,"componentType":5126,"count":215,"type":"VEC4","name":"accessorTangents"},{"bufferView":1,"byteOffset":32220,"componentType":5126,"count":215,"type":"VEC3","name":"accessorNormals"},{"bufferView":3,"byteOffset":9880,"componentType":5126,"count":215,"type":"VEC2","name":"accessorUVs"},{"bufferView":0,"byteOffset":8784,"componentType":5123,"count":630,"type":"SCALAR","name":"accessorIndices"},{"bufferView":1,"byteOffset":34800,"componentType":5126,"count":215,"max":[0.0149172777,0.00499999849,0.00500000454],"min":[-0.0151287271,-0.00500000129,-0.008357939],"type":"VEC3","name":"accessorPositions"},{"bufferView":2,"byteOffset":23200,"componentType":5126,"count":215,"type":"VEC4","name":"accessorTangents"},{"bufferView":1,"byteOffset":37380,"componentType":5126,"count":215,"type":"VEC3","name":"accessorNormals"},{"bufferView":3,"byteOffset":11600,"componentType":5126,"count":215,"type":"VEC2","name":"accessorUVs"},{"bufferView":4,"componentType":5126,"count":48,"max":[1.95833337],"min":[0.0],"type":"SCALAR","name":"accessorAnimationInput"},{"bufferView":5,"componentType":5126,"count":48,"type":"VEC4","name":"accessorAnimationRotations"},{"bufferView":4,"byteOffset":192,"componentType":5126,"count":2,"max":[1.95833337],"min":[0.0],"type":"SCALAR","name":"accessorAnimationInput"},{"bufferView":6,"componentType":5126,"count":2,"type":"VEC3","name":"accessorAnimationPositions"}],"bufferViews":[{"buffer":0,"byteLength":10044,"name":"bufferViewScalar"},{"buffer":0,"byteOffset":10044,"byteLength":39960,"byteStride":12,"name":"bufferViewFloatVec3"},{"buffer":0,"byteOffset":50004,"byteLength":26640,"byteStride":16,"name":"bufferViewFloatVec4"},{"buffer":0,"byteOffset":76644,"byteLength":13320,"byteStride":8,"name":"bufferViewFloatVec2"},{"buffer":0,"byteOffset":89964,"byteLength":200,"name":"bufferViewAnimationFloatScalar"},{"buffer":0,"byteOffset":90164,"byteLength":768,"name":"bufferViewAnimationFloatVec4"},{"buffer":0,"byteOffset":90932,"byteLength":24,"name":"bufferViewAnimationFloatVec3"}],"buffers":[{"uri":"Wind Turbine.bin","byteLength":90956}],"materials":[{"pbrMetallicRoughness":{"baseColorFactor":[0.909090936,0.909090936,0.909090936,1.0],"metallicFactor":0.0,"roughnessFactor":0.357142866},"emissiveFactor":[0.2,0.2,0.2],"name":"WindTurbine"}],"animations":[{"channels":[{"sampler":0,"target":{"node":2,"path":"rotation"}},{"sampler":1,"target":{"node":2,"path":"translation"}}],"samplers":[{"input":30,"output":31},{"input":32,"output":33}],"name":"BladeSpin"}]}